<?xml version="1.0" encoding="UTF-8"?>
<svg width="24px" height="24px" viewBox="0 0 24 24" version="1.1" xmlns="http://www.w3.org/2000/svg" xmlns:xlink="http://www.w3.org/1999/xlink">
    <!-- Generator: Sketch 42 (36781) - http://www.bohemiancoding.com/sketch -->
    <title>Circuito Assets_Icon_hackster</title>
    <desc>Created with Sketch.</desc>
    <defs></defs>
    <g id="Symbols" stroke="none" stroke-width="1" fill="none" fill-rule="evenodd">
        <g id="footerDesktop" transform="translate(-1596.000000, -12.000000)">
            <g id="social" transform="translate(1596.000000, 12.000000)">
                <g id="Circuito-Assets_Icon_hackster">
                    <g id="Layer_1">
                        <g>
                            <rect id="_Path_" fill="#5D5E5E" x="0" y="0" width="24" height="24" rx="4"></rect>
                            <path d="M5.35,10.82 L4.05,10.82 C3.94299399,10.788042 3.84409805,10.7334787 3.76,10.66 C3.81996412,10.5595126 3.90204273,10.474014 4,10.41 C4.45,10.27 4.91,10.15 5.36,10.03 L9.46,8.91 C9.53837649,8.8814231 9.61855,8.85803917 9.7,8.84 C9.99,8.84 10.08,8.84 10.09,9.16 C10.1,9.48 10.09,9.86 10.09,10.22 C10.09,10.76 10.17,10.83 10.71,10.83 L16.43,10.83 C16.5336147,10.8233621 16.6348285,10.86307 16.7062886,10.9383928 C16.7777487,11.0137156 16.8120784,11.1168778 16.8,11.22 L16.8,12.34 C16.8,13.08 16.8,13.08 17.57,13.08 L19.62,13.08 C19.7425527,13.0603751 19.8674473,13.0603751 19.99,13.08 C20.0964616,13.1218984 20.1849059,13.1997294 20.24,13.3 C20.2106861,13.3908949 20.1505604,13.4687047 20.07,13.52 C19.9803403,13.5729917 19.8822491,13.6101986 19.78,13.63 L14.37,15.1 C14.02,15.19 13.94,15.1 13.93,14.74 C13.92,14.38 13.93,14.04 13.93,13.68 C13.93,13.32 13.82,13.15 13.36,13.15 L7.7,13.15 C7.3,13.15 7.23,13.07 7.22,12.68 C7.21,12.29 7.22,11.85 7.22,11.44 C7.22,11.03 7.09,10.82 6.6,10.81 L5.35,10.81 L5.35,10.82 Z" id="Shape" fill="#FAFDFF"></path>
                            <path d="M16.8,7.47 L16.8,9.47 C16.8,9.87 16.72,9.95 16.34,9.96 L14.41,9.96 C14.01,9.96 13.94,9.88 13.94,9.48 L13.94,6.25 C13.9006729,6.1052096 13.9284445,5.95041188 14.0156513,5.82832236 C14.1028581,5.70623284 14.2402814,5.62975777 14.39,5.62 C15.06,5.42 15.74,5.24 16.39,5.07 C16.66,5 16.75,5.07 16.78,5.37 C16.81,5.67 16.78,5.74 16.78,5.93 C16.7933333,6.43666667 16.8,6.95 16.8,7.47 L16.8,7.47 Z" id="Shape" fill="#FAFDFF"></path>
                            <path d="M7.22,16.53 L7.22,14.53 C7.22,14.13 7.3,14.06 7.7,14.05 L9.63,14.05 C10.01,14.05 10.09,14.13 10.09,14.54 L10.09,17.77 C10.1260534,17.9150147 10.0953575,18.068554 10.0063205,18.1885603 C9.91728348,18.3085667 9.77923897,18.3824602 9.63,18.39 C9.02,18.57 8.4,18.74 7.79,18.89 C7.18,19.04 7.24,18.99 7.23,18.44 C7.22,17.89 7.22,17.17 7.22,16.53 L7.22,16.53 Z" id="Shape" fill="#FAFDFF"></path>
                            <path d="M13.85,16.47 L13.85,16.22 C13.8298164,16.0741754 13.8791249,15.9273181 13.9832215,15.8232215 C14.0873181,15.7191249 14.2341754,15.6698164 14.38,15.69 L16.38,15.69 C16.4813886,15.672869 16.5853333,15.6987023 16.6669059,15.7613045 C16.7484784,15.8239067 16.8003208,15.9176309 16.81,16.02 C16.8368203,16.1301758 16.8179516,16.2465151 16.7576841,16.3425665 C16.6974166,16.4386179 16.6008716,16.5062191 16.49,16.53 C15.76,16.73 15.04,16.94 14.31,17.13 C14.2119424,17.1713006 14.0995552,17.1594264 14.0122934,17.0985461 C13.9250316,17.0376658 13.8750895,16.936287 13.88,16.83 C13.8717835,16.7068035 13.8717835,16.5831965 13.88,16.46 L13.88,16.46 L13.85,16.47 Z" id="Shape" fill="#FAFDFF"></path>
                            <path d="M8.59,8.32 L7.66,8.32 C7.55830167,8.34357934 7.45137589,8.32185064 7.36694703,8.26044783 C7.28251817,8.19904503 7.22890184,8.10401583 7.22,8 C7.1902361,7.88698105 7.2089103,7.76667122 7.27153342,7.66799236 C7.33415654,7.56931351 7.43506467,7.50119058 7.55,7.48 L9.75,6.88 C9.8279311,6.84382988 9.9192522,6.85207663 9.98944269,6.90162286 C10.0596332,6.95116909 10.0979848,7.03445599 10.09,7.12 C10.09,7.12 10.09,7.12 10.09,7.18 C10.09,8.45 10.18,8.33 9.03,8.33 L8.59,8.33 L8.59,8.32 Z" id="Shape" fill="#FAFDFF"></path>
                        </g>
                    </g>
                </g>
            </g>
        </g>
    </g>
</svg>