<?xml version="1.0" encoding="UTF-8"?>
<svg width="32px" height="24px" viewBox="0 0 32 24" version="1.1" xmlns="http://www.w3.org/2000/svg" xmlns:xlink="http://www.w3.org/1999/xlink">
    <!-- Generator: Sketch 42 (36781) - http://www.bohemiancoding.com/sketch -->
    <title>assets_Icon_ins Copy</title>
    <desc>Created with Sketch.</desc>
    <defs></defs>
    <g id="Symbols" stroke="none" stroke-width="1" fill="none" fill-rule="evenodd">
        <g id="footerDesktop" transform="translate(-1788.000000, -12.000000)">
            <g id="social" transform="translate(1596.000000, 12.000000)">
                <g id="assets_Icon_ins" transform="translate(192.000000, 0.000000)">
                    <g>
                        <path d="M30.33,10.5 C30.162363,9.05898555 29.2889601,7.79573767 28,7.13 L28,4 C28,1.790861 26.209139,0 24,0 L8,0 C5.790861,0 4,1.790861 4,4 L4,7.13 C2.71103989,7.79573767 1.83763705,9.05898555 1.67,10.5 L0,10.5 L0,11.5 L1.67,11.5 C1.84079049,12.9373245 2.71375421,14.1961906 4,14.86 L4,20 C4,22.209139 5.790861,24 8,24 L24,24 C26.209139,24 28,22.209139 28,20 L28,14.86 C29.2862458,14.1961906 30.1592095,12.9373245 30.33,11.5 L32,11.5 L32,10.5 L30.33,10.5 L30.33,10.5 Z" id="_Compound_Path_-path" fill="#FFFFFF"></path>
                        <g id="Layer_1">
                            <g id="_Group_">
                                <rect id="_Path_" fill="#FFFFFF" transform="translate(15.613609, 17.777634) rotate(-85.030000) translate(-15.613609, -17.777634) " x="15.1136085" y="10.8126343" width="0.5" height="13.93"></rect>
                                <path d="M30.33,10.5 C30.162363,9.05898555 29.2889601,7.79573767 28,7.13 L28,4 C28,1.790861 26.209139,0 24,0 L8,0 C5.790861,0 4,1.790861 4,4 L4,7.13 C2.71103989,7.79573767 1.83763705,9.05898555 1.67,10.5 L0,10.5 L0,11.5 L1.67,11.5 C1.84079049,12.9373245 2.71375421,14.1961906 4,14.86 L4,20 C4,22.209139 5.790861,24 8,24 L24,24 C26.209139,24 28,22.209139 28,20 L28,14.86 C29.2862458,14.1961906 30.1592095,12.9373245 30.33,11.5 L32,11.5 L32,10.5 L30.33,10.5 L30.33,10.5 Z M22.47,19.12 L8.6,17.92 L8.69,16.92 L22.57,18.13 L22.47,19.12 Z M20.47,12.51 C19.2881106,12.51 18.33,11.5518894 18.33,10.37 C18.33,9.18811064 19.2881106,8.23 20.47,8.23 C21.6518894,8.23 22.61,9.18811064 22.61,10.37 C22.6127413,10.9445314 22.3843472,11.496034 21.9762111,11.9004084 C21.568075,12.3047829 21.0144813,12.5280608 20.44,12.52 L20.47,12.51 Z M13.68,8.58 C14.6435113,9.52042359 14.6975845,11.0521301 13.8027881,12.0581568 C12.9079916,13.0641835 11.3804324,13.189129 10.3340487,12.3418796 C9.28766497,11.4946301 9.09211536,9.97449556 9.89,8.89 L8,9.05 L7.92,8.05 L24.61,6.66 L24.69,7.66 L13.68,8.58 Z" id="_Compound_Path_" fill="#5D5E5E"></path>
                            </g>
                        </g>
                    </g>
                </g>
            </g>
        </g>
    </g>
</svg>