<?xml version="1.0" encoding="UTF-8"?>
<svg width="24px" height="24px" viewBox="0 0 24 24" version="1.1" xmlns="http://www.w3.org/2000/svg" xmlns:xlink="http://www.w3.org/1999/xlink">
    <!-- Generator: Sketch 42 (36781) - http://www.bohemiancoding.com/sketch -->
    <title>Circuito Assets_Icon_twitter</title>
    <desc>Created with Sketch.</desc>
    <defs></defs>
    <g id="Symbols" stroke="none" stroke-width="1" fill="none" fill-rule="evenodd">
        <g id="footerDesktop" transform="translate(-1644.000000, -12.000000)">
            <g id="social" transform="translate(1596.000000, 12.000000)">
                <g id="Circuito-Assets_Icon_twitter" transform="translate(48.000000, 0.000000)">
                    <g id="Layer_1">
                        <g>
                            <rect id="_Path_" fill="#5D5E5E" x="0" y="0" width="24" height="24" rx="4"></rect>
                            <path d="M9.41,19.06 L8.25,19.06 C7.91,19.06 7.58,19 7.25,18.95 C6.34437069,18.8143274 5.46237047,18.5517472 4.63,18.17 C4.2,17.97 3.78,17.73 3.36,17.52 L3.36,17.46 C5.21650674,17.6591497 7.07846578,17.1363689 8.56,16 C7.81133175,15.9843284 7.08679241,15.7323147 6.49,15.28 C5.89807559,14.8334538 5.46375337,14.2099912 5.25,13.5 C5.7712461,13.597512 6.30771652,13.57701 6.82,13.44 C6.02712752,13.2532889 5.32163319,12.8017725 4.82,12.16 C4.28686233,11.5280027 3.99617001,10.7268263 4,9.9 C4.47258495,10.1605835 5.00055367,10.3045749 5.54,10.32 C4.81252355,9.80170761 4.30302668,9.03211793 4.11,8.16 C3.90930344,7.28371896 4.05247615,6.36383428 4.51,5.59 C5.40720491,6.68916768 6.52447904,7.5884371 7.79,8.23 C9.04854682,8.87206268 10.4288639,9.24014723 11.84,9.31 C11.7620443,8.84994567 11.7620443,8.38005433 11.84,7.92 C12.1092711,6.26290263 13.493886,5.01550176 15.17,4.92 C16.1646081,4.85896555 17.1384825,5.2223515 17.85,5.92 C17.9174099,5.99603751 18.0241377,6.02370768 18.12,5.99 C18.775389,5.84745764 19.408007,5.61527337 20,5.3 L20.18,5.21 C19.9159618,6.0003508 19.3994541,6.68200047 18.71,7.15 C19.0470286,7.10795842 19.3810379,7.04449666 19.71,6.96 C20.03,6.87 20.34,6.75 20.71,6.64 L20.64,6.75 C20.2258191,7.35231329 19.7157255,7.8826755 19.13,8.32 C19.0154167,8.39757047 18.9536919,8.53259345 18.97,8.67 C18.99671,9.50078158 18.9126373,10.3314196 18.72,11.14 C18.2449162,13.275814 17.1032968,15.205361 15.46,16.65 C14.0040957,17.9530817 12.1807657,18.7739295 10.24,19 L9.41,19.06 Z" id="Shape" fill="#FFFFFF"></path>
                        </g>
                    </g>
                </g>
            </g>
        </g>
    </g>
</svg>