<svg id="Layer_1" data-name="Layer 1" xmlns="http://www.w3.org/2000/svg" viewBox="0 0 202 40"><defs><style>.cls-1{fill:#e76666;}.cls-2{fill:#494949;}</style></defs><title>cir-logo-beta</title><circle class="cls-1" cx="156.01" cy="30.93" r="4"/><circle class="cls-2" cx="30.93" cy="5.94" r="4"/><circle class="cls-2" cx="104.57" cy="5.94" r="4"/><circle class="cls-2" cx="167.8" cy="5.94" r="4"/><path class="cls-2" d="M23.71,32.22a0.56,0.56,0,0,1-.24.67,15.09,15.09,0,0,1-7.34,2.26c-7.18,0-11.95-4.6-11.95-11.51S8.94,12.14,16.13,12.14a15.09,15.09,0,0,1,7.34,2.26,0.56,0.56,0,0,1,.24.67l-2.3,4.84a0.46,0.46,0,0,1-.71.24A7,7,0,0,0,16.88,19a4.47,4.47,0,0,0-4.8,4.68,4.47,4.47,0,0,0,4.8,4.68,7,7,0,0,0,3.81-1.19,0.46,0.46,0,0,1,.71.24Z"/><path class="cls-2" d="M34.42,13c0.32,0,0,0,0,.23V33.93c0,0.32.34,0.09,0,.09h-7c-0.32,0-1,.23-1-0.09V13.25c0-.28.72-0.23,1-0.23h7Z"/><path class="cls-2" d="M51.25,13c0.32,0,.16-0.09.16,0.23v5.16c0,0.32.16,0.61-.16,0.61h-1c-1.51,0-3.81.62-3.81,1.61v13.3c0,0.32.16,0.09-.16,0.09h-7c-0.32,0-1.86.23-1.86-.09V13.29C37.4,13,38.94,13,39.26,13h4.48a0.61,0.61,0,0,1,.64.45L45,15.31A6.68,6.68,0,0,1,50.22,13h1Z"/><path class="cls-2" d="M72.92,32.22a0.56,0.56,0,0,1-.24.67,15.09,15.09,0,0,1-7.34,2.26c-7.18,0-11.95-4.6-11.95-11.51s4.76-11.51,11.95-11.51a15.09,15.09,0,0,1,7.34,2.26,0.56,0.56,0,0,1,.24.67l-2.3,4.84a0.46,0.46,0,0,1-.71.24A7,7,0,0,0,66.09,19a4.47,4.47,0,0,0-4.8,4.68,4.47,4.47,0,0,0,4.8,4.68,7,7,0,0,0,3.81-1.19,0.46,0.46,0,0,1,.71.24Z"/><path class="cls-2" d="M96,13c0.32,0-.61,0-0.61.27V34c0,0.28.93,0.05,0.61,0.05H91.53a0.53,0.53,0,0,1-.63-0.34l-0.6-1.3a9,9,0,0,1-6.51,2.68c-5.16,0-8.38-3.23-8.38-8.63V13.29C75.4,13,76,13,76.33,13h7c0.32,0,.09,0,0.09.27V25.43c0,1.35.57,2.26,1.84,2.26a2.44,2.44,0,0,0,2.16-1.27V13.29C87.4,13,88.71,13,89,13h7Z"/><path class="cls-2" d="M107.92,13c0.32,0-.51,0-0.51.23V33.93c0,0.32.83,0.09,0.51,0.09h-7c-0.32,0-1.53.23-1.53-.09V13.25c0-.28,1.21-0.23,1.53-0.23h7Z"/><path class="cls-2" d="M125.1,13c0.36,0,.6.08,0.6,0.39l-0.44,3.93a0.72,0.72,0,0,1-.59.68H121.4V33.93c0,0.32.44,0.09,0.12,0.09h-7c-0.32,0-1.14.23-1.14-.09V18h-1.72a2,2,0,0,1-1.28-.88V13.29c0-.36,1-0.27,1.28-0.27h1.72V8.37a1,1,0,0,1,.87-0.56L121,7.14c0.32,0,.37.28,0.37,0.56V13h3.7Z"/><path class="cls-2" d="M151,23.61c0,6.91-4.68,11.51-11.67,11.51s-11.67-4.6-11.67-11.47,4.68-11.51,11.67-11.51S151,16.74,151,23.61Zm-15.6,0c0,2.58,1.59,4.33,3.93,4.33s3.93-1.75,3.93-4.37-1.59-4.33-3.93-4.33S135.42,21,135.42,23.65Z"/><path class="cls-2" d="M171.29,13c0.32,0,.11,0,0.11.23V33.93c0,0.32.21,0.09-.11,0.09h-7c-0.32,0-.9.23-0.9-0.09V13.25c0-.28.59-0.23,0.9-0.23h7Z"/><path class="cls-2" d="M198.24,23.61c0,6.91-4.68,11.51-11.67,11.51s-11.67-4.6-11.67-11.47,4.68-11.51,11.67-11.51S198.24,16.74,198.24,23.61Zm-15.6,0c0,2.58,1.59,4.33,3.93,4.33s3.93-1.75,3.93-4.37-1.59-4.33-3.93-4.33S182.64,21,182.64,23.65Z"/></svg>