<?xml version="1.0" encoding="UTF-8"?>
<svg width="25px" height="25px" viewBox="0 0 25 25" version="1.1" xmlns="http://www.w3.org/2000/svg" xmlns:xlink="http://www.w3.org/1999/xlink">
    <!-- Generator: Sketch 42 (36781) - http://www.bohemiancoding.com/sketch -->
    <title>battery</title>
    <desc>Created with Sketch.</desc>
    <defs></defs>
    <g id="Symbols" stroke="none" stroke-width="1" fill="none" fill-rule="evenodd">
        <g id="battery">
            <g id="place_battery" transform="translate(8.000000, 1.000000)">
                <g id="g8" transform="translate(1.344533, 1.368072)">
                    <g id="g10">
                        <path d="M0.0810073208,1.33388421 L2.12854281,1.33388421 C2.17273106,1.33388421 2.20870488,1.29774906 2.20870488,1.2535366 L2.20870376,0.0888487521 C2.20870376,0.0446362899 2.1725883,0.00850114475 2.12854169,0.00850114475 L1.10470256,0.00850114475 L0.0810073208,0.00850104272 C0.0368190714,0.00850104272 0.000845253879,0.0446361879 0.000845253879,0.0888486501 L0.000845253879,1.25353844 C0.000846375582,1.29788843 0.0369651986,1.33388421 0.0810073208,1.33388421 Z M0.124070502,0.102594077 C0.124070502,0.0595152573 0.159194579,0.0243721385 0.202249807,0.0243721385 L1.10485226,0.0243721385 L2.00745471,0.0243721385 C2.05050994,0.0243721385 2.08563402,0.0595153593 2.08563402,0.102594077 L2.08563402,1.23978709 C2.08563402,1.28286591 2.05050994,1.31800903 2.00745471,1.31800903 L0.202242975,1.31800852 C0.159187747,1.31800852 0.12406367,1.2828653 0.12406367,1.23978658 L0.124070502,0.102594077 Z" id="path12" fill="#939393"></path>
                        <path d="M0.202242975,1.31800852 L1.10484543,1.31800852 L2.00744788,1.31800852 C2.05050311,1.31800852 2.08562719,1.2828653 2.08562719,1.23978658 L2.08563259,0.102594077 C2.08563259,0.0595152573 2.05050851,0.0243721385 2.00745329,0.0243721385 L1.10485083,0.0243721385 L0.202248379,0.0243721385 C0.159193152,0.0243721385 0.124069075,0.0595153593 0.124069075,0.102594077 L0.124069075,1.23978709 C0.124070502,1.28286979 0.15918999,1.31800852 0.202242975,1.31800852 Z" id="path14" fill="#B2B2B2"></path>
                        <path d="M0.37857462,1.30539776 L1.10484849,1.30539776 L1.83112235,1.30539776 C1.87077852,1.30539776 1.90335327,1.27294697 1.90335327,1.23312747 L1.90335327,0.153325672 C1.90335327,0.113506163 1.87092016,0.0810553814 1.83112235,0.0810553814 L1.26729651,0.0810553814 C1.2827341,0.0943757562 1.2936395,0.113931317 1.2936395,0.13717114 L1.2936395,1.10998652 C1.2936395,1.14980602 1.26389735,1.18225681 1.22764035,1.18225681 L1.10498931,1.18225681 L0.754598999,1.18225681 C0.7183419,1.18225681 0.688599855,1.14980602 0.688599855,1.10998652 L0.688603016,0.13731245 C0.688603016,0.114072627 0.699366874,0.0943753481 0.714945997,0.0811966913 L0.378718708,0.0811966913 C0.339062545,0.0811966913 0.306487792,0.113647473 0.306487792,0.153466982 L0.306487792,1.23326878 C0.306347172,1.27308522 0.338917335,1.30539776 0.37857462,1.30539776 Z" id="path16" fill="#E6E6E6"></path>
                        <path id="path18" fill="#FFFFFF" opacity="0.9"></path>
                    </g>
                    <rect id="rect20" fill="#000000" opacity="0.1" x="0.0024065619" y="0.0141697649" width="2.20191236" height="0.5"></rect>
                </g>
                <g id="g22" transform="translate(0.793879, 1.796593)">
                    <path d="M3.11697693,0.0410972157 C3.06259128,0.0386882026 2.95750243,0.136465712 2.95750243,0.136465712 C2.95750243,0.136465712 2.90580775,0.0311780741 2.81417332,0.0242339915 C2.40529029,-0.00637465972 2.20120263,0.00737086929 1.79246542,0.00737086929 C1.73723004,0.00737086929 1.67732062,0.00538697977 1.65140317,0.0769487207 C1.62590789,0.00538712261 1.56613134,0.00736648205 1.51076002,0.00736648205 C1.09366205,0.00736648205 0.885750402,-0.00482025039 0.46837201,0.0267802231 C0.367102662,0.0342918922 0.324335202,0.13872861 0.324335202,0.13872861 C0.324335202,0.13872861 0.26456375,0.0369854535 0.203663458,0.0396790148 C0.13015788,0.0410960831 0.0610430543,0.0355695279 0.055519179,0.0989123665 C0.0339915651,0.344631476 0.0137386132,0.457146837 0.00297475524,0.677499538 C-0.0062311394,0.865119346 0.0583517839,0.946883216 0.0583517839,1.15618415 C0.0583517839,1.30029988 0.186384956,1.46368682 0.295297177,1.46368682 C0.679961623,1.46368682 0.872294866,1.45490102 1.25695931,1.48395087 C1.42776402,1.4968462 1.60409261,1.46382854 1.65153859,1.30979377 C1.699126,1.46397057 1.87602085,1.49727176 2.04682556,1.48437633 C2.43134826,1.4554682 2.62353976,1.46368723 3.00820421,1.46368723 C3.1169757,1.46368723 3.22602967,1.28882103 3.22602967,1.15604274 C3.22602967,1.15604274 3.32276234,0.857608391 3.30732476,0.63527123 C3.29188717,0.412934069 3.22857614,0.0966417147 3.22857614,0.0966417147 C3.22092817,0.00609112159 3.14317378,0.0422297358 3.11697693,0.0410972157 Z" id="path24" fill="#919191"></path>
                    <g id="g26" transform="translate(0.040789, 0.091826)">
                        <path id="path28" fill="#F4F4F4"></path>
                        <path id="path30" fill="#B7B7B7"></path>
                        <path id="path32" fill="#999999"></path>
                    </g>
                    <g id="g34" transform="translate(0.367103, 0.051014)">
                        <path d="M0.0167133684,0.243736689 C0.0254943723,0.125411806 0.0943261113,0.0250837896 0.167406972,0.0198405277 C0.53833362,-0.00694204209 0.720752031,0.00552812646 1.08912936,0.00552812646 C1.16206837,0.00552812646 1.22112724,0.101180059 1.22112724,0.219505045 C1.22112724,0.219505045 1.19464261,0.420161078 1.19464261,0.537777881 C1.19464261,0.655394684 1.22112724,0.843438932 1.22112724,0.843438932 C1.22112724,1.01901322 1.16206786,1.14158964 1.08912936,1.13747992 C0.720752031,1.1166491 0.536491988,1.10347034 0.168114664,1.10347034 C0.0954589289,1.10347034 0.0402232347,1.00328384 0.0263436949,0.902814308 C-0.0066588344,0.661912082 -0.0045275995,0.527856393 0.0167133684,0.243736689 Z" id="path36" fill="#F4F4F4"></path>
                        <g id="g38" transform="translate(0.010197, 0.000000)" fill="#B7B7B7">
                            <path id="path40"></path>
                        </g>
                        <g id="g42" transform="translate(0.000000, 0.693796)" fill="#999999">
                            <path id="path44"></path>
                        </g>
                    </g>
                    <g id="g46" transform="translate(3.008202, 0.091826)">
                        <path id="path48" fill="#F4F4F4"></path>
                        <path id="path50" fill="#B7B7B7"></path>
                        <path id="path52" fill="#999999"></path>
                    </g>
                    <g id="g54" transform="translate(1.713146, 0.051014)">
                        <path d="M1.20583027,0.242879647 C1.19704927,0.124554764 1.12850071,0.0245103876 1.05542015,0.0192671256 C0.68477699,-0.00723200804 0.502075094,0.00552159662 0.133839512,0.00552159662 C0.0609004961,0.00552159662 0.00240758163,0.10117353 0.00240758163,0.219498515 C0.00240758163,0.219498515 0.0263428791,0.435176254 0.0263428791,0.564553921 C0.0263428791,0.693931588 0.00240758163,0.843432403 0.00240758163,0.843432403 C0.00240758163,0.961331825 0.0609003942,1.14214937 0.133839512,1.13818147 C0.502075094,1.1177757 0.686335137,1.10360512 1.05457072,1.10360512 C1.12722645,1.10360512 1.18260389,1.00341862 1.1960582,0.902949088 C1.22848866,0.661912082 1.22651039,0.527009553 1.20583027,0.242879647 Z" id="path56" fill="#F4F4F4"></path>
                        <g id="g58" fill="#B7B7B7">
                            <path id="path60"></path>
                        </g>
                        <g id="g62" transform="translate(0.000000, 0.663187)" fill="#999999">
                            <path id="path64"></path>
                        </g>
                    </g>
                </g>
                <g id="g66" transform="translate(6.453379, 1.765984)">
                    <path d="M2.13166319,0.00991720298 L0.0841276934,0.00991720298 C0.039939444,0.00991720298 0.00396562651,0.0460523482 0.00396562651,0.0902648103 L0.00396562651,1.2549546 C0.00396562651,1.29916706 0.0400810844,1.3353022 0.0841276934,1.3353022 L1.10796682,1.3353022 L2.13180595,1.3353022 C2.1759942,1.3353022 2.21196801,1.29916706 2.21196801,1.2549546 L2.21196689,0.0904077527 C2.21182413,0.0460558172 2.17584807,0.00991720298 2.13166319,0.00991720298 Z M2.0886102,1.24134405 C2.0886102,1.28442287 2.05348612,1.31956599 2.0104309,1.31956599 L1.10782844,1.31956599 L0.20522599,1.31956599 C0.162170762,1.31956599 0.127046685,1.28442277 0.127046685,1.24134405 L0.127048113,0.104008197 C0.127048113,0.060929377 0.16217219,0.0257862582 0.205227418,0.0257862582 L2.01043436,0.0257862582 C2.05348959,0.0257862582 2.08861367,0.060929479 2.08861367,0.104008197 L2.0886102,1.24134405 Z" id="path68" fill="#939393"></path>
                    <path d="M2.01057029,0.0259357304 L1.10796784,0.0259357304 L0.205365387,0.0259357304 C0.162310159,0.0259357304 0.127186082,0.0610789513 0.127186082,0.104157669 L0.127186082,1.24135068 C0.127186082,1.2844295 0.162310159,1.31957262 0.205365387,1.31957262 L1.10796784,1.31957262 L2.01057029,1.31957262 C2.05362552,1.31957262 2.0887496,1.2844294 2.0887496,1.24135068 L2.08875296,0.104008197 C2.0886102,0.061074462 2.05348052,0.0259357304 2.01057029,0.0259357304 Z" id="path70" fill="#B2B2B2"></path>
                    <path d="M1.83409589,0.0384036544 L1.10782202,0.0384036544 L0.381548152,0.0384036544 C0.341891989,0.0384036544 0.309317236,0.0708544362 0.309317236,0.110673945 L0.309317236,1.19047574 C0.309317236,1.23029525 0.341750348,1.26274603 0.381548152,1.26274603 L0.945373992,1.26274603 C0.929936408,1.24942565 0.919031011,1.22987009 0.919031011,1.20663027 L0.919031317,0.233676646 C0.919031317,0.193857138 0.948773465,0.161406356 0.985030461,0.161406356 L1.1076815,0.161406356 L1.45807181,0.161406356 C1.49432891,0.161406356 1.52407096,0.193857138 1.52407096,0.233676646 L1.52407096,1.20649202 C1.52407096,1.22973184 1.5133071,1.24942912 1.49772798,1.26260778 L1.83395527,1.26260778 C1.87361143,1.26260778 1.90618618,1.230157 1.90618618,1.19033749 L1.90618618,0.110535696 C1.90633353,0.0708488246 1.87389593,0.0384036544 1.83409589,0.0384036544 Z" id="path72" fill="#E6E6E6"></path>
                    <path id="path74" fill="#FFFFFF" opacity="0.9"></path>
                </g>
                <rect id="rect76" x="6.46188305" y="2.87653772" width="2.20191236" height="0.5"></rect>
                <rect id="rect78" fill="#000000" opacity="0.1" x="0.832118989" y="2.87653772" width="3.1996872" height="0.5"></rect>
                <path id="path80" fill="#353535"></path>
                <path id="path82" fill="#353535"></path>
                <path id="path84" fill="#000000" opacity="0.35"></path>
                <path d="M10.0868791,21.7436389 C10.0010518,21.8706077 9.68422762,21.9655516 9.30820232,21.9655516 L0.881264858,21.9655516 C0.439806572,21.9655516 0.0787937347,21.8346149 0.0787937347,21.6747694 L0.0787937347,21.692341 C0.129780216,21.9865238 0.421536076,22.2196312 0.784956494,22.2522233 C0.787930709,22.2525067 0.790763294,22.2529318 0.793737498,22.2530735 C0.808750162,22.2543489 0.824471027,22.2544906 0.839766972,22.2550574 C0.853646613,22.2554825 0.867243076,22.2564745 0.881264358,22.2564745 L9.30381291,22.2564745 C9.6855033,22.2566399 10.0064326,22.0361556 10.0868791,21.7436389 Z" id="path86" fill="#353535"></path>
                <path d="M10.0868791,21.7436389 C10.0010518,21.8706077 9.68422762,21.9655516 9.30820232,21.9655516 L0.881264858,21.9655516 C0.439806572,21.9655516 0.0787937347,21.8346149 0.0787937347,21.6747694 L0.0787937347,21.692341 C0.129780216,21.9865238 0.421536076,22.2196312 0.784956494,22.2522233 C0.787930709,22.2525067 0.790763294,22.2529318 0.793737498,22.2530735 C0.808750162,22.2543489 0.824471027,22.2544906 0.839766972,22.2550574 C0.853646613,22.2554825 0.867243076,22.2564745 0.881264358,22.2564745 L9.30381291,22.2564745 C9.6855033,22.2566399 10.0064326,22.0361556 10.0868791,21.7436389 Z" id="path88" fill="#000000" opacity="0.35"></path>
                <g id="g90" transform="translate(0.069871, 2.969925)">
                    <g id="g92">
                        <path d="M9.39440186,0.00424439963 C9.67553621,0.00424439963 10.0368315,0.245429348 10.0368315,0.540320235 L10.0368315,18.6308493 C10.0368315,18.9914927 9.6755352,19.2865254 9.23393619,19.2865254 L0.803037073,19.2865111 C0.361437044,19.2865111 0.000141742416,18.9914784 0.000141742416,18.630835 L0.000141629226,0.540467157 C0.000141629226,0.245576269 0.361437951,0.00439132116 0.963503652,0.00439132116 L9.39440186,0.00438724 L9.39440186,0.00424439963 Z" id="path94" fill="#353535"></path>
                        <path d="M10.0368315,4.76502218 L0.000141629226,4.76502218 L0.000141629226,0.540467157 C0.000141629226,0.245718089 0.361437951,0.00439132116 0.963503652,0.00439132116 L9.39440378,0.00439132116 C9.67553814,0.00439132116 10.0368334,0.245717069 10.0368334,0.540467157 L10.0368315,4.76502218 Z" id="path96" fill="#D18D52"></path>
                    </g>
                    <path d="M9.85796074,18.7049467 C9.85796074,18.786428 9.63220382,18.8561474 9.32217747,18.8802374 L9.32217441,0.300699389 C9.63220077,0.320396566 9.85795769,0.377362633 9.85795769,0.444106022 L9.85796074,18.7049467 Z" id="path98" fill="#FFFFFF" opacity="0.15"></path>
                    <path d="M0.162165562,18.7049467 C0.162165562,18.786428 0.387922482,18.8561474 0.697948838,18.8802374 L0.697948838,0.300699389 C0.387922482,0.320396566 0.162165562,0.377362633 0.162165562,0.444106022 L0.162165562,18.7049467 Z" id="path100" fill="#FFFFFF" opacity="0.15"></path>
                    <path id="path102" fill="#FFFFFF" opacity="0.35"></path>
                    <g id="g104" opacity="0.2" transform="translate(9.850588, 0.387710)" fill="#000000">
                        <path id="path106"></path>
                    </g>
                    <g id="g108" opacity="0.2" transform="translate(0.020395, 0.387710)" fill="#000000">
                        <path id="path110"></path>
                    </g>
                </g>
                <g id="g116" transform="translate(5.902725, 1.327260)">
                    <path d="M0.196155189,1.44823813 C0.250540837,1.45064714 0.355629684,1.35286963 0.355629684,1.35286963 C0.355629684,1.35286963 0.407324367,1.45815727 0.4989588,1.46510135 C0.907841824,1.49571 1.11192949,1.48196447 1.52066669,1.48196447 C1.57590208,1.48196447 1.6358115,1.48394836 1.66172895,1.41238662 C1.68736383,1.48394843 1.74713131,1.48196447 1.802367,1.48196447 C2.21946497,1.48196447 2.42737662,1.49415121 2.84475501,1.46255073 C2.94601987,1.45489858 2.98879182,1.35046083 2.98879182,1.35046083 C2.98879182,1.35046083 3.04855929,1.45234785 3.10960122,1.44951369 C3.1831068,1.44809662 3.25222163,1.45362318 3.2577455,1.39028034 C3.27927312,1.14456123 3.29952607,1.03204587 3.31028993,0.81169317 C3.31949582,0.624073361 3.2549129,0.542309492 3.2549129,0.333008555 C3.2549129,0.188892822 3.12687973,0.0255058829 3.0179675,0.0255058829 C2.63330306,0.0255058829 2.44096982,0.0342916882 2.05630537,0.00524183354 C1.88550066,-0.00765348917 1.70917207,0.0253641649 1.66172609,0.179398937 C1.61413868,0.0252221408 1.43724384,-0.00807905145 1.26643913,0.00481637329 C0.881916422,0.0337245098 0.689724922,0.0255054748 0.305060477,0.0255054748 C0.196288978,0.0255054748 0.0872350135,0.200371679 0.0872350135,0.333149967 C0.0872350135,0.333149967 -0.00949765968,0.631584316 0.00593992502,0.853921477 C0.0213775097,1.07625864 0.0846856894,1.39268985 0.0846856894,1.39268985 C0.0923467141,1.48324422 0.170101097,1.44710561 0.196155189,1.44823813 Z" id="path118" fill="#919191"></path>
                    <g id="g120" transform="translate(3.018400, 0.326492)">
                        <path id="path122" fill="#F4F4F4"></path>
                        <path id="path124" fill="#B7B7B7"></path>
                        <path id="path126" fill="#999999"></path>
                    </g>
                    <g id="g128" transform="translate(1.723343, 0.295884)">
                        <path d="M1.20597303,0.898700607 C1.19719203,1.01702549 1.12836029,1.11735351 1.05527943,1.12259677 C0.684352783,1.14937934 0.501934371,1.13690917 0.133557047,1.13690917 C0.060618031,1.13690917 0.00155916658,1.04125724 0.00155916658,0.922932252 C0.00155916658,0.922932252 0.0280437881,0.722276219 0.0280437881,0.604659416 C0.0280437881,0.487042613 0.00155916658,0.298998364 0.00155916658,0.298998364 C0.00155916658,0.12342408 0.0606185409,0.00084765558 0.133557047,0.00495737715 C0.501934371,0.0257881967 0.686194414,0.0389669556 1.05457174,0.0389669556 C1.12722747,0.0389669556 1.18246317,0.139153458 1.19634271,0.239622989 C1.22934524,0.480525215 1.22735676,0.614580904 1.20597303,0.898700607 Z" id="path130" fill="#F4F4F4"></path>
                        <g id="g132" transform="translate(0.000000, 0.897854)" fill="#B7B7B7">
                            <path id="path134"></path>
                        </g>
                        <g id="g136" fill="#999999">
                            <path id="path138"></path>
                        </g>
                    </g>
                    <g id="g140" transform="translate(0.050986, 0.326492)">
                        <path id="path142" fill="#F4F4F4"></path>
                        <path id="path144" fill="#B7B7B7"></path>
                        <path id="path146" fill="#999999"></path>
                    </g>
                    <g id="g148" transform="translate(0.377300, 0.295884)">
                        <path d="M0.0169988927,0.899547447 C0.0257798966,1.01787233 0.0943284566,1.11791671 0.167409011,1.12315997 C0.538052175,1.1496591 0.720754071,1.1369055 1.08898965,1.1369055 C1.16192867,1.1369055 1.22042158,1.04125356 1.22042158,0.922928579 C1.22042158,0.922928579 1.19648629,0.70725084 1.19648629,0.577873173 C1.19648629,0.448495506 1.22042158,0.298994691 1.22042158,0.298994691 C1.22042158,0.181095269 1.16192877,0.000277722495 1.08898965,0.00424562398 C0.720754071,0.0246513914 0.536494028,0.0388219726 0.168258446,0.0388219726 C0.0956027108,0.0388219726 0.0402252742,0.139008475 0.0267709616,0.239478006 C-0.00565949937,0.480525215 -0.00382398606,0.615427744 0.0169988927,0.899547447 Z" id="path150" fill="#F4F4F4"></path>
                        <g id="g152" transform="translate(0.010197, 0.897854)" fill="#B7B7B7">
                            <path id="path154"></path>
                        </g>
                        <g id="g156" fill="#999999">
                            <path id="path158"></path>
                        </g>
                    </g>
                </g>
                <path d="M9.66566956,1.71567708 L9.66566956,1.08083222 C9.66566956,0.840072736 9.50053454,0.735493178 8.77949393,0.735493178 L1.39467323,0.735493178 C0.673636691,0.735493178 0.508496578,0.840072736 0.508496578,1.08083222 L0.508496578,1.71567708 L9.66566956,1.71567708 Z" id="path160" fill="#262626"></path>
                <path id="path162" fill="#FFFFFF" opacity="0.35"></path>
                <path id="path164" fill="#FFFFFF" opacity="0.15"></path>
                <path id="path166" fill="#FFFFFF" opacity="0.15"></path>
            </g>
        </g>
    </g>
</svg>