<?xml version="1.0" encoding="UTF-8"?>
<svg width="43px" height="44px" viewBox="0 0 43 44" version="1.1" xmlns="http://www.w3.org/2000/svg" xmlns:xlink="http://www.w3.org/1999/xlink">
    <!-- Generator: sketchtool 42 (36781) - http://www.bohemiancoding.com/sketch -->
    <title>811315ED-F6B5-4563-9A5C-10F260E78072</title>
    <desc>Created with sketchtool.</desc>
    <defs>
        <path d="M42.5625,37.2083333 L25.5,19.3875 C27.1875,14.8833333 26.25,9.59583333 22.6875,5.875 C18.9375,1.95833333 13.3125,1.175 8.8125,3.32916667 L16.875,11.75 L11.25,17.625 L3,9.20416667 C0.75,13.9041667 1.6875,19.7791667 5.4375,23.6958333 C9,27.4166667 14.0625,28.3958333 18.375,26.6333333 L35.4375,44.4541667 C36.1875,45.2375 37.3125,45.2375 38.0625,44.4541667 L42.375,39.95 C43.3125,39.1666667 43.3125,37.7958333 42.5625,37.2083333 Z" id="path-1"></path>
    </defs>
    <g id="Home" stroke="none" stroke-width="1" fill="none" fill-rule="evenodd">
        <g id="welcome" transform="translate(-478.000000, -497.000000)">
          
            <g id="content" transform="translate(394.000000, 66.000000)">
                <g id="bom-copy-4" transform="translate(61.000000, 407.000000)">
                    <g id="bom">
                        <g id="Sidemenu/icons/BuildOn" transform="translate(22.000000, 22.000000)">
                            <g id="ic_build_black_24px">
                                <g id="Group">
                                    <polygon id="Shape" points="0 0 45 0 45 47 0 47"></polygon>
                                    <mask id="mask-2" fill="white">
                                        <use xlink:href="#path-1"></use>
                                    </mask>
                                    <use id="Shape" fill="#FFFFFF" xlink:href="#path-1"></use>
                                    <g id="Sidemenu/icon_bg/grey" mask="url(#mask-2)" fill="#616161">
                                        <rect id="icon_bg" x="0" y="0" width="45" height="47"></rect>
                                    </g>
                                </g>
                            </g>
                        </g>
                        <circle id="Oval-2" stroke="#979797" stroke-width="2" cx="45" cy="45" r="45"></circle>
                    </g>
                </g>
            </g>
        </g>
    </g>
</svg>