<?xml version="1.0" encoding="UTF-8"?>
<svg width="25px" height="25px" viewBox="0 0 25 25" version="1.1" xmlns="http://www.w3.org/2000/svg" xmlns:xlink="http://www.w3.org/1999/xlink">
    <!-- Generator: Sketch 42 (36781) - http://www.bohemiancoding.com/sketch -->
    <title>dc</title>
    <desc>Created with Sketch.</desc>
    <defs></defs>
    <g id="Symbols" stroke="none" stroke-width="1" fill="none" fill-rule="evenodd">
        <g id="dc">
            <g id="place_dc2" transform="translate(2.000000, 7.000000)">
                <g id="graphic">
                    <rect id="connector0pin" fill="#8C8C8C" x="0.658443249" y="2.64382111" width="0.5" height="0.5"></rect>
                    <rect id="connector1pin" fill="#8C8C8C" x="0.637388181" y="9.11190608" width="0.5" height="0.5"></rect>
                    <g id="g9" transform="translate(18.934258, 5.308360)">
                        <rect id="rect11" fill="#878787" x="0.216614062" y="0.00433768844" width="2.73167158" height="0.960966341"></rect>
                        <rect id="rect13" fill="#2D2D2D" x="0.216614062" y="0.00433768844" width="0.5" height="0.960966341"></rect>
                        <rect id="rect15" fill="#000000" opacity="0.35" x="0.216614062" y="0.854706624" width="2.73167158" height="0.5"></rect>
                        <path id="path17" fill="#FFFFFF" opacity="0.35"></path>
                    </g>
                    <g id="g19" transform="translate(2.578305, 0.106167)" stroke="#6D6D6D" stroke-width="1.38889" fill="#6D6D6D">
                        <path d="M16.4735828,1.46630553 C16.4735828,1.13748751 16.2051526,0.869334947 15.87693,0.869334947 L15.8704035,0.869334947 C15.5417595,0.869334947 15.2733293,0.673433714 15.2733293,0.4349837 C15.2733293,0.19653217 15.0053191,0.0008432709 14.6766766,0.0008432709 L0.0141125047,0.000840844221 L0.0141125047,11.5233794 L14.6767472,11.5233794 C15.0053912,11.5233794 15.2733999,11.3274781 15.2733999,11.0890281 C15.2733999,10.8505781 15.5418301,10.6548877 15.8704741,10.6548877 L15.8770006,10.6548877 C16.2052232,10.6548877 16.4736534,10.386315 16.4736534,10.057497 L16.4735828,1.46630553 L16.4735828,1.46630553 Z" id="path21"></path>
                    </g>
                    <path d="M18.545141,10.0720216 L18.5390355,10.0720216 C18.212497,10.0720216 17.88596,10.1996729 17.88596,10.3555502 C17.88596,10.5110062 17.6792156,10.6390788 17.3530985,10.6390788 L3.79519374,10.6390909 L3.79519374,11.5770963 L17.2341939,11.5770963 C17.5598896,11.5770963 17.8262157,11.3820384 17.8262157,11.1442193 C17.8262157,10.9064002 18.0935939,10.7113422 18.4190789,10.7113422 L18.4256054,10.7113422 C18.7517225,10.7113422 19.0180472,10.4436113 19.0180472,10.1164783 L19.0180472,9.68233789 C19.0188421,9.89676985 18.8713506,10.0720216 18.545141,10.0720216 Z" id="path23" fill="#000000" opacity="0.35"></path>
                    <rect id="rect25" fill="#878787" x="1.62353545" y="5.54840402" width="0.5" height="0.640573449"></rect>
                    <rect id="rect27" fill="#E5E500" x="2.41030379" y="5.28068068" width="2.15628764" height="1.17624612"></rect>
                    <g id="g29" transform="translate(1.820383, 0.000000)">
                        <rect id="rect31" fill="#E5E500" x="0.00147036837" y="3.97403545" width="0.588441422" height="3.78909219"></rect>
                        <polygon id="polygon33" fill="#F3FF00" points="2.17229495 5.28068068 2.17229495 0 0.589920885 0 0.589920885 5.47678666 2.74620852 5.47678666 2.74620852 6.26017926 0.589920885 6.26017926 0.589920885 11.7373906 2.17229495 11.7373906 2.17229495 6.45692225 2.74620852 6.45692225 2.74620852 5.28068068"></polygon>
                    </g>
                    <path id="path35" fill="#686868" opacity="0.5"></path>
                    <path d="M17.6060758,3.7577122 C17.6060758,4.05619673 17.3060646,4.29780749 16.936367,4.29780749 L5.24765999,4.29779991 C4.87775169,4.29779991 4.57795116,4.0768326 4.57795116,3.77813725 L4.57796026,1.08356216 C4.57796026,0.784866807 4.87776079,0.521560018 5.24766909,0.521560018 L16.9362942,0.521560018 C17.3059918,0.521560018 17.6060031,0.763803234 17.6060031,1.06249858 L17.6060758,3.7577122 Z" id="path37" fill="#FFFFFF" opacity="0.16"></path>
                    <g id="g39" opacity="0.16" transform="translate(18.146019, 1.319507)" fill="#FFFFFF">
                        <path d="M0.676066282,2.5096106 C0.676066282,2.67391496 0.541535155,2.80809513 0.37773915,2.80809513 L0.30363122,2.80809513 C0.140045918,2.80809513 0.00530408862,2.67370323 0.00530408862,2.5096106 L0.00530545288,0.299300503 C0.00530545288,0.134996144 0.14004713,0.000815970763 0.303632584,0.000815970763 L0.377740515,0.000815970763 C0.541536519,0.000815970763 0.676067646,0.135207872 0.676067646,0.299300503 L0.676066282,2.5096106 Z" id="path41"></path>
                    </g>
                    <g id="g43" transform="translate(15.462976, 2.517679)">
                        <path d="M0.507201296,2.6768391 C0.289509469,2.6768391 0.11223913,2.49968548 0.11223913,2.28187892 L0.11223913,0.507825016 C0.11223913,0.289806122 0.289507953,0.112443198 0.507201296,0.112443198 C0.724894638,0.112443198 0.902163462,0.289807638 0.902163462,0.507825016 L0.902163462,2.28187892 C0.902078575,2.49947921 0.724876448,2.6768391 0.507201296,2.6768391 L0.507201296,2.6768391 Z" id="path45" fill="#000000"></path>
                        <path d="M0.507201296,0.217764093 C0.666996989,0.217764093 0.796895697,0.347943128 0.796895697,0.507823499 L0.796895697,2.28187741 C0.796895697,2.44196844 0.666996383,2.57151518 0.507201296,2.57151518 C0.347406209,2.57151518 0.217506894,2.44196799 0.217506894,2.28187741 L0.217506894,0.507823499 C0.217523568,0.347727912 0.347431372,0.217764093 0.507201296,0.217764093 L0.507201296,0.217764093 Z M0.507201296,0.00711320238 C0.230981228,0.00711320238 0.00697288093,0.231239744 0.00697288093,0.507817433 L0.00697288093,2.28187134 C0.00697288093,2.55823821 0.230559824,2.78215545 0.507201296,2.78215545 C0.783421363,2.78215545 1.00742971,2.55844903 1.00742971,2.28187134 L1.00742971,0.507817433 C1.00742971,0.231247328 0.783388014,0.00711320238 0.507201296,0.00711320238 L0.507201296,0.00711320238 Z" id="path47" fill="#6B6B6B"></path>
                    </g>
                    <g id="g49" transform="translate(15.462976, 6.430699)">
                        <path d="M0.507201296,2.67635377 C0.289509469,2.67635377 0.11223913,2.49898933 0.11223913,2.28118277 L0.11223913,0.507341197 C0.11223913,0.289322302 0.289507953,0.111959379 0.507201296,0.111959379 C0.724894638,0.111959379 0.902163462,0.289323819 0.902163462,0.507341197 L0.902163462,2.28118277 C0.902078575,2.49899388 0.724876448,2.67635377 0.507201296,2.67635377 L0.507201296,2.67635377 Z" id="path51" fill="#000000"></path>
                        <path d="M0.507201296,0.217278757 C0.666996989,0.217278757 0.796895697,0.347457793 0.796895697,0.507338164 L0.796895697,2.28117974 C0.796895697,2.44105995 0.666996383,2.57102832 0.507201296,2.57102832 C0.347406209,2.57102832 0.217506894,2.44105995 0.217506894,2.28117974 L0.217506894,0.507338164 C0.217523568,0.347454911 0.347431372,0.217278757 0.507201296,0.217278757 L0.507201296,0.217278757 Z M0.507201296,0.00662786661 C0.230981228,0.00662786661 0.00697288093,0.230754408 0.00697288093,0.507332097 L0.00697288093,2.28117367 C0.00697288093,2.55754054 0.230559824,2.7816686 0.507201296,2.7816686 C0.783421363,2.7816686 1.00742971,2.55796217 1.00742971,2.28117367 L1.00742971,0.507332097 C1.00742971,0.230974326 0.783388014,0.00662786661 0.507201296,0.00662786661 L0.507201296,0.00662786661 Z" id="path53" fill="#6B6B6B"></path>
                    </g>
                    <g id="g55" transform="translate(15.462976, 0.000000)">
                        <path d="M0.507201296,1.28199017 C0.289509469,1.28199017 0.11223913,1.10441643 0.11223913,0.887029986 L0.112172432,0.105322867 L0.902095249,0.105322867 L0.902095249,0.887028925 C0.902078575,1.10483655 0.724876448,1.28199017 0.507201296,1.28199017 L0.507201296,1.28199017 Z" id="path57" fill="#000000"></path>
                        <path d="M0.796879023,0.210646341 L0.796879023,0.887029986 C0.796879023,1.04669939 0.666979708,1.17666776 0.507184621,1.17666776 C0.347389534,1.17666776 0.21749022,1.04669939 0.21749022,0.887029986 L0.217523568,0.210646341 L0.796879023,0.210646341 L0.796879023,0.210646341 Z M1.00742971,0 L0.00697288093,0 L0.00697288093,0.88702847 C0.00697288093,1.16339534 0.230559824,1.38731258 0.507201296,1.38731258 C0.783421363,1.38731258 1.00742971,1.16339686 1.00742971,0.88702847 L1.00742971,0 L1.00742971,0 Z" id="path59" fill="#6B6B6B"></path>
                    </g>
                    <g id="g61" transform="translate(15.462976, 10.343719)">
                        <path d="M0.112172432,1.28835413 L0.112172432,0.506645043 C0.112172432,0.288626149 0.289441256,0.111263225 0.507134599,0.111263225 C0.724827941,0.111263225 0.902096765,0.288627666 0.902096765,0.506645043 L0.902096765,1.2883511 L0.112172432,1.28835413 Z" id="path63" fill="#000000"></path>
                        <path d="M0.507201296,0.216581087 C0.666996989,0.216581087 0.796895697,0.346760122 0.796895697,0.506640493 L0.796895697,1.18302414 L0.217506894,1.18302414 L0.217523568,0.506645043 C0.217523568,0.346757241 0.347431372,0.216581087 0.507201296,0.216581087 L0.507201296,0.216581087 Z M0.507201296,0.00594536318 C0.230981228,0.00594536318 0.00697288093,0.229651786 0.00697288093,0.506649593 L0.00697288093,1.39367806 L1.00742971,1.39367806 L1.00742971,0.506645043 C1.00742971,0.230276656 0.783388014,0.00594536318 0.507201296,0.00594536318 L0.507201296,0.00594536318 Z" id="path65" fill="#6B6B6B"></path>
                    </g>
                    <g id="wires" transform="translate(0.000000, 2.184011)" fill="#ED8F66">
                        <path d="M0.776982225,0.0147117405 L0.67171537,0.130145668 L0.67171537,0.762083174 L0.789403806,0.877517102 L2.41031061,0.877517102 L2.41031061,0.0145021361 L0.776982225,0.0147117405 L0.776982225,0.0147117405 Z M1.1051927,0.730475834 C0.948134619,0.730475834 0.820972009,0.60324582 0.820972009,0.446103956 C0.820972009,0.288962851 0.948134468,0.161732079 1.1051927,0.161732079 C1.26225093,0.161732079 1.38941339,0.288962092 1.38941339,0.446103956 C1.38941339,0.603257195 1.26226442,0.730475834 1.1051927,0.730475834 Z" id="path68"></path>
                        <path d="M0.776982225,6.49627995 L0.67171537,6.61192439 L0.67171537,7.24386189 L0.789403806,7.35929582 L2.41031061,7.35929582 L2.41031061,6.49628086 L0.776982225,6.49627995 Z M1.1051927,7.21225637 C0.948134619,7.21225637 0.820972009,7.08502636 0.820972009,6.9278845 C0.820972009,6.77074263 0.948134468,6.64351262 1.1051927,6.64351262 C1.26225093,6.64351262 1.38941339,6.77074263 1.38941339,6.9278845 C1.38941339,7.08502636 1.26226442,7.21225637 1.1051927,7.21225637 Z" id="path70"></path>
                    </g>
                </g>
            </g>
        </g>
    </g>
</svg>