<?xml version="1.0" encoding="UTF-8"?>
<svg width="25px" height="25px" viewBox="0 0 25 25" version="1.1" xmlns="http://www.w3.org/2000/svg" xmlns:xlink="http://www.w3.org/1999/xlink">
    <!-- Generator: Sketch 42 (36781) - http://www.bohemiancoding.com/sketch -->
    <title>dioide</title>
    <desc>Created with Sketch.</desc>
    <defs></defs>
    <g id="Symbols" stroke="none" stroke-width="1" fill="none" fill-rule="evenodd">
        <g id="dioide">
            <g id="place_diode2" transform="translate(12.500000, 12.353659) rotate(90.000000) translate(-12.500000, -12.353659) translate(0.000000, 9.000000)">
                <g id="breadboard">
                    <rect id="connector0pin" x="0.00931998741" y="2.18969849" width="0.847271028" height="0.847735286"></rect>
                    <rect id="connector1pin" x="21.6697729" y="2.18969849" width="0.847271028" height="0.847735286"></rect>
                    <path id="connector0leg" stroke="#8C8C8C" stroke-width="2.90833"></path>
                    <path id="connector1leg" stroke="#8C8C8C" stroke-width="2.90833"></path>
                    <rect id="rect7" fill="#8C8C8C" x="1.77418208" y="2.18969849" width="21.7671955" height="1.77515423"></rect>
                    <g id="Group" transform="translate(5.612319, 0.000000)">
                        <path d="M2.14781,-3.29275902e-13 L0.320268192,-3.29275902e-13 C-0.0821850884,-3.29275902e-13 -0.0127088519,6.09775639 0.320268192,6.09775639 L2.1478283,6.09775639 L11.8981952,6.09775639 L13.7266032,6.09775639 C14.1629476,6.09775639 14.1993801,-3.29275902e-13 13.7266032,-3.29275902e-13 L11.8981952,-3.29275902e-13 L2.14781,-3.29275902e-13 Z" id="Body_1_" fill="#1A1A1A"></path>
                        <rect id="rect16" fill="#FFFFFF" opacity="0.74" x="2.67652704" y="-3.29275902e-13" width="1.68776457" height="6.09775639"></rect>
                        <path id="Reflex_1_" fill="#FFFFFF" opacity="0.4"></path>
                        <path d="M13.7240716,6.0986048 C13.1081074,6.11047306 12.5056982,6.0986048 11.8973594,6.0986048 L0.317742649,6.0986048 C0.240640979,6.0986048 0.146594377,5.48569065 0.16353931,5.48569065 L2.14276014,5.48569065 L11.893981,5.48569065 L13.9214983,5.48569065 C13.9392918,5.48569065 13.8486407,6.09690798 13.7240716,6.0986048 Z" id="Shaddow_1_" fill="#000000" opacity="0.4"></path>
                    </g>
                </g>
            </g>
        </g>
    </g>
</svg>