<?xml version="1.0" encoding="UTF-8"?>
<svg width="25px" height="25px" viewBox="0 0 25 25" version="1.1" xmlns="http://www.w3.org/2000/svg" xmlns:xlink="http://www.w3.org/1999/xlink">
    <!-- Generator: Sketch 42 (36781) - http://www.bohemiancoding.com/sketch -->
    <title>mosfetn</title>
    <desc>Created with Sketch.</desc>
    <defs></defs>
    <g id="Symbols" stroke="none" stroke-width="1" fill="none" fill-rule="evenodd">
        <g id="mosfetn">
            <g id="place_mosfetn2" transform="translate(6.000000, 2.000000)">
                <rect id="connector0pin" x="2.43201329" y="20.7152429" width="1.04214253" height="0.5"></rect>
                <rect id="connector1pin" x="5.90512696" y="20.7152429" width="1.04214253" height="0.5"></rect>
                <rect id="connector2pin" x="9.37824063" y="20.7152429" width="1.04214253" height="0.5"></rect>
                <path id="connector0leg" stroke="#8C8C8C" stroke-width="3"></path>
                <path id="connector1leg" stroke="#8C8C8C" stroke-width="3"></path>
                <path id="connector2leg" stroke="#8C8C8C" stroke-width="3"></path>
                <path d="M11.6362161,0.0347571189 L6.42619823,0.0347571189 L6.42619823,0.904380235 C7.93869442,0.904380235 9.16182237,1.76357621 9.16182237,2.82227806 C9.16112761,3.88028476 7.93799966,4.73843802 6.42619823,4.73843802 L6.42619823,7.54924623 L11.6362161,7.54924623 L11.6362161,0.0347571189 Z" id="Shape" fill="#BFBCBC"></path>
                <path d="M3.69126884,2.82019263 C3.69126884,1.76114322 4.91509156,0.903685092 6.42619823,0.903685092 L6.42619823,0.0344095477 L1.21618033,0.0344095477 L1.21618033,7.54577052 L6.42619823,7.54577052 L6.42619823,4.73530988 C4.91509156,4.73600503 3.69126884,3.8785469 3.69126884,2.82019263 Z" id="Shape" fill="#808080"></path>
                <rect id="rect4" fill="#8C8C8C" x="2.43201329" y="16.033459" width="1.04214253" height="5.48710637"></rect>
                <rect id="rect6" fill="#8C8C8C" x="5.90512696" y="16.033459" width="1.04214253" height="5.48710637"></rect>
                <rect id="rect8" fill="#8C8C8C" x="9.37824063" y="16.033459" width="1.04214253" height="5.48710637"></rect>
                <polygon id="polygon10" fill="#CCCCCC" points="0.000347380844 1.43373116 0.000347380844 6.07033082 1.21618033 6.07033082 1.21618033 0.0347571189"></polygon>
                <polygon id="polygon12" fill="#999999" points="12.8520491 1.43373116 11.6362161 0.0347571189 11.6362161 6.07033082 12.8520491 6.07033082"></polygon>
                <polygon id="polygon21" fill="#8C8C8C" points="4.1689175 19.5595687 3.39078441 19.9071399 2.51538469 19.9071399 1.7372516 19.5595687 1.7372516 15.3261516 4.1689175 15.3261516"></polygon>
                <polygon id="polygon23" fill="#8C8C8C" points="7.64203118 19.5595687 6.86389809 19.9071399 5.98884574 19.9071399 5.21036527 19.5595687 5.21036527 15.3261516 7.64203118 15.3261516"></polygon>
                <polygon id="polygon25" fill="#8C8C8C" points="11.1151449 19.5595687 10.3370118 19.9071399 9.4623068 19.9071399 8.68417371 19.5595687 8.68417371 15.3261516 11.1151449 15.3261516"></polygon>
                <rect id="Rectangle-path" fill="#141414" x="8.68417371" y="10.8171106" width="4.16857012" height="7.72372697"></rect>
                <rect id="Rectangle-path" fill="#333333" x="0.000347380844" y="10.8171106" width="4.16857012" height="7.72372697"></rect>
                <path d="M0.000347380844,13.6452973 L0.000347380844,16.1394682 C0.983435168,16.1394682 1.7806742,15.581964 1.7806742,14.8923827 C1.7806742,14.2038442 0.983435168,13.6452973 0.000347380844,13.6452973 Z" id="path40_1_" fill="#262626"></path>
                <path d="M12.8520491,13.6452973 C11.8689613,13.6452973 11.0717222,14.2028015 11.0717222,14.8923827 C11.0717222,15.5802261 11.8689613,16.1394682 12.8520491,16.1394682 L12.8520491,13.6452973 Z" id="path47" fill="#000000"></path>
                <path d="M0.000347380844,10.8171106 L0.000347380844,14.2538945 C0.983435168,14.2538945 1.7806742,14.8120938 1.7806742,15.5009799 C1.7806742,16.189866 0.983435168,16.7480653 0.000347380844,16.7480653 L0.000347380844,18.5408375 L12.8527438,18.5408375 L12.8527438,10.8171106 L0.000347380844,10.8171106 Z M12.8520491,16.7477178 C11.8689613,16.7477178 11.0717222,16.1902136 11.0717222,15.5006323 C11.0717222,14.8127889 11.8689613,14.2535469 12.8520491,14.2535469 L12.8520491,16.7477178 Z" id="Shape" fill="#1A1A1A"></path>
                <rect id="rect49" fill="#000000" x="0.000347380844" y="9.20090452" width="12.8523965" height="1.61585846"></rect>
                <rect id="rect51" fill="#333333" x="0.000347380844" y="7.20306533" width="12.8523965" height="1.9978392"></rect>
                <rect id="rect53" fill="#B2B2B2" x="1.21618033" y="0.0347571189" width="10.4207305" height="1.47717755"></rect>
                <path d="M11.6362161,1.16749162 L1.21618033,1.16749162 L0.000347380844,2.56611809 L0.000347380844,7.20271776 L12.8520491,7.20271776 L12.8520491,2.56611809 L11.6362161,1.16749162 Z M6.42619823,5.8690871 C4.91509156,5.8690871 3.69126884,5.01128141 3.69126884,3.95292714 C3.69126884,2.89492044 4.91509156,2.03746231 6.42619823,2.03746231 C7.93869442,2.03746231 9.16182237,2.89526801 9.16182237,3.95292714 C9.16112761,5.01093384 7.93799966,5.8690871 6.42619823,5.8690871 Z" id="path55" fill="#8C8C8C"></path>
                <g id="Group" transform="translate(3.821189, 11.435092)" fill="#6D6D6D">
                    <polygon id="path57" points="0.0305695142 1.31277638 0.0305695142 0.00278056951 0.53948245 0.00278056951 0.53948245 0.269367672 0.806618319 0.269367672 0.806618319 0.536302345 1.04874277 0.536302345 1.04874277 0.00347571189 1.58266712 0.00347571189 1.58266712 1.31347152 1.04874277 1.31347152 1.04874277 1.04584171 0.806618319 1.04584171 0.806618319 0.779254606 0.53948245 0.779254606 0.53948245 1.31242881"></polygon>
                    <path d="M3.13372259,0.269367672 L3.37584704,0.269367672 L3.37584704,0.779254606 L3.13372259,0.779254606 L3.13372259,1.04584171 L2.35871593,1.04584171 L2.35871593,1.31312395 L1.82548633,1.31312395 L1.82548633,0.00347571189 L3.13545949,0.00347571189 L3.13545949,0.270062814 L3.13372259,0.269367672 L3.13372259,0.269367672 Z M2.8669341,0.269367672 L2.35802117,0.269367672 L2.35802117,0.779254606 L2.8669341,0.779254606 L2.8669341,0.269367672 Z" id="path59"></path>
                    <polygon id="path61" points="3.64228815 1.31277638 3.64228815 0.00278056951 4.15189584 0.00278056951 4.15189584 0.269367672 4.41868433 0.269367672 4.41868433 0.536302345 4.68651496 0.536302345 4.68651496 0.00347571189 5.1954279 0.00347571189 5.1954279 1.31347152 4.68616758 1.31347152 4.68616758 1.04584171 4.41868433 1.04584171 4.41868433 0.779254606 4.15189584 0.779254606 4.15189584 1.31242881"></polygon>
                </g>
            </g>
        </g>
    </g>
</svg>