<svg id="Layer_1" data-name="Layer 1" xmlns="http://www.w3.org/2000/svg" viewBox="0 0 24 24"><defs><style>.cls-1,.cls-2{fill:none;stroke:#000;stroke-miterlimit:10;}.cls-2{stroke-linecap:round;}</style></defs><title>overview</title><path class="cls-1" d="M17.24,19.33H6.76a2.1,2.1,0,0,1-2.1-2.1V6.76a2.1,2.1,0,0,1,2.1-2.1H17.24a2.1,2.1,0,0,1,2.1,2.1V17.24A2.1,2.1,0,0,1,17.24,19.33Z"/><rect class="cls-1" x="8.33" y="8.33" width="7.33" height="7.33"/><line class="cls-2" x1="8.07" y1="4.14" x2="8.07" y2="1"/><line class="cls-2" x1="12" y1="4.14" x2="12" y2="1"/><line class="cls-2" x1="15.93" y1="4.14" x2="15.93" y2="1"/><line class="cls-2" x1="8.07" y1="23" x2="8.07" y2="19.86"/><line class="cls-2" x1="12" y1="23" x2="12" y2="19.86"/><line class="cls-2" x1="15.93" y1="23" x2="15.93" y2="19.86"/><line class="cls-2" x1="4.14" y1="15.93" x2="1" y2="15.93"/><line class="cls-2" x1="4.14" y1="12" x2="1" y2="12"/><line class="cls-2" x1="4.14" y1="8.07" x2="1" y2="8.07"/><line class="cls-2" x1="23" y1="15.93" x2="19.86" y2="15.93"/><line class="cls-2" x1="23" y1="12" x2="19.86" y2="12"/><line class="cls-2" x1="23" y1="8.07" x2="19.86" y2="8.07"/></svg>