<?xml version="1.0" encoding="UTF-8"?>
<svg width="25px" height="25px" viewBox="0 0 25 25" version="1.1" xmlns="http://www.w3.org/2000/svg" xmlns:xlink="http://www.w3.org/1999/xlink">
    <!-- Generator: Sketch 42 (36781) - http://www.bohemiancoding.com/sketch -->
    <title>resistor</title>
    <desc>Created with Sketch.</desc>
    <defs></defs>
    <g id="Symbols" stroke="none" stroke-width="1" fill="none" fill-rule="evenodd">
        <g id="resistor">
            <g id="place_resistor2" transform="translate(12.500000, 12.976190) rotate(90.000000) translate(-12.500000, -12.976190) translate(0.000000, 10.000000)">
                <g id="breadboard">
                    <rect id="connector0pin" x="0" y="2.01988514" width="0.595510018" height="0.595836324"></rect>
                    <rect id="connector1pin" x="24.3664834" y="2.01988514" width="0.595510018" height="0.595836324"></rect>
                    <path id="connector0leg" stroke="#8C8C8C" stroke-width="2.91"></path>
                    <path id="connector1leg" stroke="#8C8C8C" stroke-width="2.91"></path>
                    <path id="Shape" stroke="#8C8C8C" stroke-width="2.91"></path>
                    <path d="M8.17813907,0.290768126 C7.88038406,0.153725772 7.36824545,0.0464752333 7.04071494,0.0464752333 L5.39710729,0.0464752333 C5.06957678,0.0464752333 4.80159727,0.314601579 4.80159727,0.642311558 L4.80159727,5.07473798 C4.80159727,5.40304379 5.06957678,5.6705743 5.39710729,5.6705743 L7.04071494,5.6705743 C7.36824545,5.6705743 7.88038406,5.55796123 8.17813907,5.42628141 L8.23769007,5.39708543 C8.53544508,5.26004307 9.0475837,5.15279253 9.37511421,5.15279253 L15.3183042,5.15279253 C15.6464302,5.15279253 16.1573778,5.2654056 16.4551328,5.39708543 L16.5152793,5.42628141 C16.8130343,5.56332376 17.3239819,5.6705743 17.6527035,5.6705743 L19.2963111,5.6705743 C19.6250326,5.6705743 19.8918211,5.40304379 19.8918211,5.07473798 L19.8918211,0.642311558 C19.8918211,0.314601579 19.6250326,0.0464752333 19.2963111,0.0464752333 L17.6527035,0.0464752333 C17.3239819,0.0464752333 16.8130343,0.159684135 16.5152793,0.290768126 L16.4551328,0.320559943 C16.1573778,0.457602297 15.6464302,0.564852836 15.3183042,0.564852836 L9.37511421,0.564852836 C9.0475837,0.564852836 8.53544508,0.451643934 8.23769007,0.320559943 L8.17813907,0.290768126 Z" id="body" fill="#D9B477"></path>
                    <rect id="gold_band" fill="#AD9F4E" x="17.9141324" y="0.0411127064" width="0.581217777" height="5.62350323"></rect>
                    <rect id="band_rd_multiplier" fill="#FF4D00" x="13.078591" y="0.564852836" width="1.53046075" height="4.58198134"></rect>
                    <rect id="band_2_nd" fill="#000000" x="10.018265" y="0.564852836" width="1.53046075" height="4.58198134"></rect>
                    <path d="M8.49316387,0.409935391 C8.39788227,0.380143575 8.30855577,0.350351759 8.23709456,0.314601579 L8.17754356,0.284809763 C7.87978855,0.148363245 7.36764994,0.0405168701 7.04011943,0.0405168701 L6.96865823,0.0405168701 L6.96865823,5.66461594 L7.04011943,5.66461594 C7.36764994,5.66461594 7.87978855,5.55200287 8.17754356,5.42032304 L8.23709456,5.39112706 C8.30855577,5.35418521 8.39788227,5.32498923 8.49316387,5.29579325 L8.49316387,0.409935391 Z" id="band_1_st" fill="#8A3D06"></path>
                    <path d="M19.3135809,3.26518306 L19.3135809,3.26518306 C19.3135809,3.5791888 19.2057936,3.84374013 19.0694218,3.84374013 L17.47941,3.84374013 C17.1649807,3.84374013 16.6707074,3.7972649 16.377121,3.74244795 L16.3169745,3.72933955 C16.0317252,3.67571429 15.5320923,3.62804738 15.2140899,3.62804738 L9.46860928,3.62804738 C9.15298897,3.62804738 8.65871566,3.67571429 8.36691575,3.72933955 L8.30736475,3.74185212 C8.02151994,3.79607322 7.52724662,3.84314429 7.20567121,3.84314429 L6.94364681,3.84314429 L6.11588788,3.84314429 L5.85981857,3.84314429 C5.54419826,3.84314429 5.28217386,4.08624551 5.28217386,4.37701364 L5.28217386,4.5813855 L5.28217386,4.71306533 L5.28217386,4.85606604 C5.28217386,5.15398421 5.54419826,5.38993539 5.85981857,5.38993539 L7.19971611,5.38993539 C7.51533642,5.38993539 8.00960974,5.28864322 8.30140965,5.16888011 L8.36096065,5.1456425 C8.64680546,5.02885858 9.14703387,4.92637473 9.46265418,4.92637473 L15.2081348,4.92637473 C15.5219686,4.92637473 16.0162419,5.02885858 16.3116149,5.14623833 L16.3729524,5.16947595 C16.6582017,5.28923905 17.1542616,5.39053123 17.475837,5.39053123 L19.3159629,5.39053123 C19.6309877,5.39053123 19.8942032,5.14623833 19.8942032,4.85666188 L19.8942032,4.4091888 L19.8942032,3.60421393 L19.8942032,2.0782771 C19.6649318,2.16765255 19.3135809,2.4179038 19.3135809,3.26518306 Z" id="Shadow" fill="#000000" opacity="0.3"></path>
                    <rect id="ShadowExtra" fill="#000000" opacity="0.4" x="17.9141324" y="2.76348887" width="0.581217777" height="2.60916726"></rect>
                    <path d="M16.0382758,0.779353912 C16.2282435,0.779353912 16.4444136,0.695936827 16.586145,0.636353195 C16.7528878,0.570811199 17.0631485,0.51718593 17.3853195,0.51718593 L18.5936093,0.51718593 C18.7794084,0.51718593 18.7794084,0.71977028 18.7794084,0.827020818 C18.7794084,0.934271357 18.7669027,1.14281407 18.5936093,1.14281407 L16.0626917,1.14281407 C15.9739607,1.14281407 15.8721285,1.04748026 15.8721285,0.957508973 C15.8774881,0.886604451 15.9370391,0.779353912 16.0382758,0.779353912 Z" id="ReflexRight" fill="#FFFFFF" opacity="0.25"></path>
                    <ellipse id="ReflexLeft" fill="#FFFFFF" opacity="0.35" cx="5.49179338" cy="0.821062455" rx="0.357306011" ry="0.357501795"></ellipse>
                    <rect id="Reflex_gold" fill="#FFFF33" opacity="0.5" x="17.9141324" y="0.231184494" width="0.581217777" height="1.34063173"></rect>
                    <rect id="Reflex_extra" fill="#FFFFFF" opacity="0.5" x="17.9141324" y="0.529102656" width="0.581217777" height="0.619669777"></rect>
                </g>
            </g>
        </g>
    </g>
</svg>