<?xml version="1.0" encoding="UTF-8"?>
<svg width="41px" height="43px" viewBox="0 0 41 43" version="1.1" xmlns="http://www.w3.org/2000/svg" xmlns:xlink="http://www.w3.org/1999/xlink">
    <!-- Generator: sketchtool 42 (36781) - http://www.bohemiancoding.com/sketch -->
    <title>84603B26-740E-44A1-B7BF-D3865D92EFE8</title>
    <desc>Created with sketchtool.</desc>
    <defs>
        <path d="M14.30042,36.4 C12.0373359,36.4 10.2211289,38.32425 10.2211289,40.7 C10.2211289,43.0736 12.0373359,45 14.30042,45 C16.5655539,45 18.40021,43.0736 18.40021,40.7 C18.40021,38.32425 16.5655539,36.4 14.30042,36.4 M34.7993701,36.4 C32.536286,36.4 30.720079,38.32425 30.720079,40.7 C30.720079,43.0736 32.536286,45 34.7993701,45 C37.064504,45 38.8991601,43.0736 38.8991601,40.7 C38.8991601,38.32425 37.064504,36.4 34.7993701,36.4 M6.10083992,2 L1.999,2 L1.999,6.29785 L6.10083992,6.29785 L13.4763622,22.61205 L10.7028542,27.8817 C10.3830706,28.49875 10.2006299,29.20395 10.2006299,29.95 C10.2006299,32.3236 12.0373359,34.25 14.30042,34.25 L38.8991601,34.25 L38.8991601,29.95 L15.1675255,29.95 C14.88464,29.95 14.6571017,29.71135 14.6571017,29.4125 L14.7185985,29.15235 L16.5594043,25.65 L31.8290722,25.65 C33.3705932,25.65 34.7153244,24.75775 35.4163885,23.43765 L42.7427132,9.4863 C42.9067048,9.181 43.001,8.82625 43.001,8.45 C43.001,7.26105 42.082647,6.29785 40.9490551,6.29785 L10.6372576,6.29785 L9.8050002,4.46175 C9.15108369,3.0062 7.73665613,2 6.10083992,2" id="path-1"></path>
    </defs>
    <g id="Home" stroke="none" stroke-width="1" fill="none" fill-rule="evenodd">
        <g id="welcome" transform="translate(-479.000000, -221.000000)">
           
            <g id="content" transform="translate(394.000000, 66.000000)">
                <g id="bom" transform="translate(61.000000, 131.000000)">
                    <g>
                        <g id="Material/Icons-black/shopping-cart/active" transform="translate(22.000000, 22.000000)">
                            <mask id="mask-2" fill="white">
                                <use xlink:href="#path-1"></use>
                            </mask>
                            <use id="Fill-2" fill="#FF6B6B" fill-rule="evenodd" xlink:href="#path-1"></use>
                            <g id="Sidemenu/icon_bg/grey" mask="url(#mask-2)" fill-rule="evenodd" fill="#616161">
                                <rect id="icon_bg" x="0" y="0" width="45" height="47"></rect>
                            </g>
                        </g>
                        <circle id="Oval-2" stroke="#979797" stroke-width="2" cx="45" cy="45" r="45"></circle>
                    </g>
                </g>
            </g>
        </g>
    </g>
</svg>